<svg xmlns="http://www.w3.org/2000/svg" width="28" height="28" viewBox="0 0 28 28" fill="none">
  <path d="M11.5932 18.0833C11.489 17.6795 11.2786 17.3111 10.9837 17.0162C10.6889 16.7214 10.3204 16.511 9.91667 16.4068L2.75917 14.5611C2.63705 14.5265 2.52958 14.4529 2.45305 14.3517C2.37652 14.2504 2.33511 14.1269 2.33511 14C2.33511 13.873 2.37652 13.7496 2.45305 13.6483C2.52958 13.547 2.63705 13.4735 2.75917 13.4388L9.91667 11.592C10.3203 11.4879 10.6886 11.2776 10.9835 10.983C11.2783 10.6884 11.4888 10.3202 11.5932 9.91663L13.4388 2.75913C13.4731 2.63654 13.5466 2.52853 13.648 2.45159C13.7495 2.37465 13.8733 2.33301 14.0006 2.33301C14.1279 2.33301 14.2517 2.37465 14.3531 2.45159C14.4546 2.52853 14.528 2.63654 14.5623 2.75913L16.4068 9.91663C16.511 10.3204 16.7214 10.6888 17.0163 10.9837C17.3111 11.2785 17.6796 11.489 18.0833 11.5931L25.2408 13.4376C25.3639 13.4716 25.4725 13.545 25.5498 13.6466C25.6272 13.7481 25.6691 13.8723 25.6691 14C25.6691 14.1276 25.6272 14.2518 25.5498 14.3534C25.4725 14.455 25.3639 14.5283 25.2408 14.5623L18.0833 16.4068C17.6796 16.511 17.3111 16.7214 17.0163 17.0162C16.7214 17.3111 16.511 17.6795 16.4068 18.0833L14.5612 25.2408C14.5269 25.3634 14.4534 25.4714 14.352 25.5483C14.2505 25.6253 14.1267 25.6669 13.9994 25.6669C13.8721 25.6669 13.7483 25.6253 13.6469 25.5483C13.5454 25.4714 13.472 25.3634 13.4377 25.2408L11.5932 18.0833Z" stroke="#C27AFF" stroke-width="2.33333" stroke-linecap="round" stroke-linejoin="round"/>
  <path d="M23.3333 3.5V8.16667" stroke="#C27AFF" stroke-width="2.33333" stroke-linecap="round" stroke-linejoin="round"/>
  <path d="M25.6667 5.83337H21" stroke="#C27AFF" stroke-width="2.33333" stroke-linecap="round" stroke-linejoin="round"/>
  <path d="M4.66666 19.8334V22.1667" stroke="#C27AFF" stroke-width="2.33333" stroke-linecap="round" stroke-linejoin="round"/>
  <path d="M5.83333 21H3.5" stroke="#C27AFF" stroke-width="2.33333" stroke-linecap="round" stroke-linejoin="round"/>
</svg>