<svg width="400" height="104" viewBox="0 0 400 104" fill="none" xmlns="http://www.w3.org/2000/svg">
<path d="M99.1885 36.2852C106.117 36.4705 112.342 38.6573 117.863 42.6221C123.606 46.8464 127.498 52.368 129.758 58.8526C130.017 59.5193 130.202 60.1496 130.388 60.7793C130.425 60.8903 130.462 61.0014 130.462 61.1123C130.573 61.3716 130.424 61.5567 130.165 61.5567H114.788C114.529 61.5567 114.343 61.483 114.158 61.2608C114.047 61.0385 113.862 60.7789 113.677 60.5196C110.861 56.5918 106.933 54.0718 102.042 53.0342V52.9971C91.9637 51.1814 83.108 57.1844 80.8105 65.5957C78.254 74.9706 84.2933 84.3091 94.0381 86.6436C101.819 88.4593 109.674 85.272 113.861 79.0098C114.084 78.6764 114.195 78.3433 114.565 78.0469C114.788 78.0469 115.01 78.0098 115.232 78.0098H129.646C129.906 78.0098 130.128 78.047 130.351 78.084C130.425 78.0843 130.499 78.1946 130.499 78.2686C130.499 78.3798 130.499 78.5657 130.462 78.6768C128.165 86.6805 123.606 93.2023 116.418 97.9082C112.713 100.391 108.526 101.984 104.08 102.799C101.486 103.281 98.9295 103.504 96.2988 103.318C89.9998 102.911 84.2929 100.984 79.1426 97.3897C73.2883 93.3507 69.2873 87.9768 66.8418 81.4922C65.9896 79.1949 65.396 76.8977 65.0996 74.4893C64.692 71.7473 64.6186 68.9676 64.915 66.1885C65.9526 57.1844 69.9166 49.5137 77.2529 43.585C81.477 40.1759 86.3686 37.9535 91.7783 36.8418C94.2237 36.3601 96.669 36.2111 99.1885 36.2852ZM368.688 36.2842C375.617 36.4695 381.842 38.6562 387.363 42.6211C393.106 46.8454 396.998 52.367 399.258 58.8516C399.517 59.5183 399.702 60.1486 399.888 60.7784C399.925 60.8893 399.961 61.0004 399.961 61.1114C400.072 61.3707 399.924 61.5557 399.665 61.5557H384.288C384.029 61.5557 383.843 61.482 383.658 61.2598C383.547 61.0375 383.362 60.7779 383.177 60.5186C380.361 56.5908 376.433 54.0708 371.542 53.0332C361.464 51.2176 352.608 57.2206 350.311 65.6319C347.754 75.0067 353.793 84.3452 363.538 86.6797C371.319 88.4954 379.174 85.3081 383.361 79.0459C383.584 78.7125 383.695 78.3794 384.065 78.083C384.288 78.083 384.51 78.046 384.732 78.0459H399.146V78.0088C399.406 78.0088 399.628 78.046 399.851 78.083C399.924 78.0834 399.998 78.1936 399.998 78.2676C399.998 78.3788 399.998 78.5647 399.961 78.6758C397.664 86.6795 393.106 93.2014 385.918 97.9073C382.213 100.39 378.026 101.983 373.58 102.798C370.986 103.28 368.429 103.503 365.799 103.317C359.5 102.91 353.793 100.983 348.643 97.3887C342.788 93.3497 338.786 87.9758 336.341 81.4912C335.489 79.194 334.896 76.8967 334.6 74.4883C334.192 71.7463 334.118 68.9666 334.414 66.1875C335.452 57.1834 339.417 49.5127 346.753 43.584C350.977 40.175 355.869 37.9525 361.278 36.8409C363.724 36.3592 366.169 36.2101 368.688 36.2842ZM37.6084 9.56839C38.7941 9.27195 40.5362 8.30862 41.833 8.97562C42.2774 9.19802 42.2407 9.7906 42.5 10.1241C42.7964 10.4945 43.4264 10.3466 43.834 10.2725C44.6119 10.1243 45.3158 10.0498 46.0938 10.0498C46.5754 10.0498 47.1315 9.93867 47.5762 10.0498C48.1689 10.198 48.3544 10.865 48.3545 11.3467C48.3545 11.9394 48.7987 12.1249 49.2432 12.125L50.6143 12.1992C51.3182 12.2363 52.0225 12.4955 52.6895 12.7178C53.5787 13.0513 53.0601 13.9783 53.4307 14.46C53.7641 14.9042 54.3936 15.0529 54.9121 15.127C55.7272 15.2011 57.1355 15.3859 57.7285 16.0157C58.247 16.5342 57.3219 16.9421 57.3213 17.3125C57.7659 17.6831 58.0993 18.0541 58.5439 18.3135C59.5445 18.8693 61.8412 19.5732 60.8779 20.7588C61.1002 21.0182 61.3227 21.426 61.582 21.5742L62.9902 22.4268C64.1755 23.1308 62.6572 23.8712 63.8799 24.5752C64.3615 24.8716 64.8433 25.2429 65.1768 25.6875C65.8799 26.5764 64.139 26.5403 66.1025 28.5039C66.3616 28.7633 66.251 29.2076 66.251 29.541C67.1773 32.0237 67.9184 34.544 68.1777 37.1748C68.2148 37.5082 68.3262 37.8786 68.3262 38.2119C68.4003 40.0276 68.4003 41.8064 68.3262 43.6221C68.3261 43.9925 68.2148 44.363 68.1777 44.7334C67.3625 51.3663 64.3984 57.4809 59.8779 62.4092C57.5807 64.8918 54.9496 66.9664 52.0596 68.6709C51.7261 68.8562 51.3921 69.1156 51.0957 69.3379L52.3926 72.7842L56.0615 82.4932V82.5303L59.0625 90.3116L63.2129 101.354L53.0967 101.279H47.502C47.0944 101.279 46.9461 101.094 46.835 100.724L42.5371 88.0879L37.2383 88.1992H20.0088L16.0068 101.465H0L1.25977 98.2784L8.89258 77.8614L20.7871 45.9932L23.5654 38.5088H29.6055C29.8648 36.4338 30.3832 34.5431 31.2725 32.6534L30.5684 32.1719C30.7536 31.8384 30.7165 31.6158 30.5684 31.3194L30.4951 31.1719C30.384 30.9496 31.2358 31.2452 31.5693 30.6895C31.7544 30.3561 31.7175 29.9855 31.5693 29.541C32.088 29.578 32.5323 29.3556 32.6064 28.8369C32.6805 28.2812 32.4583 27.8734 32.0508 27.4287L32.5693 27.1328C32.7915 26.9848 33.0875 26.7622 33.125 26.5401C33.1991 26.2438 33.1255 25.8358 32.9404 25.6504L32.3848 25.0205L32.8662 24.7608C33.3478 24.5013 33.7553 23.9454 33.459 23.3897C33.2737 23.0193 32.8293 22.9077 32.3848 22.6485L33.125 22.0557C33.5326 21.7222 33.5696 21.1293 33.1621 20.7217C32.9398 20.4996 32.6066 20.3883 32.2363 20.2032L32.9404 19.4991C33.1996 19.2398 33.2731 18.8694 33.1621 18.4991C32.94 17.9066 32.0151 17.9797 32.0137 17.795C32.0878 17.4244 33.0885 16.8307 32.2363 15.9414C34.4592 14.6075 35.3114 12.1993 34.7188 9.75394L36.46 9.67972C36.7933 9.67972 37.3119 9.64243 37.6084 9.56839ZM137.424 38.3985H165.065C173.884 38.4357 182.072 44.0684 184.592 52.5537C185.259 54.7029 185.444 56.9634 185.296 59.2237C184.962 64.8189 181.813 70.4886 176.44 73.9717V74.0088C175.292 74.7869 175.366 74.5646 175.811 75.7871C178.775 83.7909 181.739 91.7579 184.703 99.7246C184.851 100.132 184.999 100.504 185.073 100.874C185.11 100.948 185.073 101.096 185.073 101.207C184.814 101.207 184.555 101.244 184.333 101.244C181.925 101.281 179.59 101.281 177.219 101.281C174.773 101.318 172.327 101.318 169.919 101.355H168.882C168.697 101.355 168.548 101.207 168.511 101.096C168.437 100.836 168.289 100.577 168.215 100.28C166.77 96.0932 165.361 91.9429 163.879 87.7188C162.804 84.6434 161.767 81.5676 160.729 78.4922L160.471 77.8252C160.36 77.7149 160.103 77.5321 160.1 77.5293H153.245C153.023 77.5293 152.838 77.5665 152.652 77.6035C152.578 77.6035 152.467 77.7511 152.43 77.8252C152.43 77.9365 152.393 78.2334 152.393 78.2334V99.9102C152.393 101.318 152.578 101.207 151.021 101.207H137.201C135.83 101.207 135.904 101.318 135.904 100.022V39.8438C135.904 38.2137 135.719 38.3985 137.424 38.3985ZM271.236 38.4004C272.347 38.4004 272.311 38.4004 272.311 39.3633V84.0518C272.311 84.4963 272.348 84.9412 272.348 85.3487C272.385 85.4968 272.496 85.6084 272.645 85.6084C273.015 85.6454 273.385 85.6455 273.756 85.6455H305.14C305.251 85.6826 305.399 85.8304 305.399 85.9414C305.436 86.1637 305.437 86.35 305.437 86.5723V100.356C305.436 100.579 305.399 100.838 305.399 101.098C305.398 101.135 305.221 101.312 305.214 101.319H256.192C255.859 101.282 255.748 101.134 255.711 100.801V39.92C255.711 39.5494 255.711 39.104 255.748 38.7334C255.748 38.5854 255.896 38.4375 256.118 38.4004H271.236ZM317.971 36.3965C321.972 35.5813 326.53 37.6566 327.938 41.8438C328.161 42.5106 328.346 43.2151 328.346 43.919V100.909C328.346 101.131 328.161 101.242 327.938 101.242C327.679 101.279 327.345 101.279 327.049 101.279H312.561C311.329 101.279 311.232 101.336 311.228 100.456V44.1407C311.265 40.6576 314.006 37.2489 317.971 36.4336V36.3965ZM234.249 38.3946C235.399 38.3205 245.587 38.2833 250.256 38.3575H250.849C250.849 38.4686 250.886 38.6173 250.849 38.6914C250.737 38.9878 250.552 39.2476 250.367 39.544L235.175 63.3701C232.359 67.7425 229.543 72.1521 226.764 76.5244C226.236 77.3857 226.146 77.4138 226.134 77.9209V99.7578C226.134 100.165 226.098 100.573 226.098 100.943C226.098 101.055 225.912 101.24 225.838 101.24C225.468 101.277 225.097 101.277 224.801 101.277H210.72C210.461 101.277 210.239 101.24 209.979 101.24C209.833 101.24 209.685 100.949 209.683 100.943V78.7481C209.646 77.1918 209.757 77.7471 209.016 76.4873C201.272 64.2222 193.602 51.9937 185.895 39.7285C185.672 39.4323 185.487 39.0991 185.302 38.8028C185.154 38.6545 185.302 38.4317 185.524 38.4317H200.456C200.864 38.4317 201.198 38.3947 201.568 38.4688C201.939 38.8022 202.161 39.1734 202.383 39.5069C207.348 46.6954 212.276 53.8095 217.241 60.9239C217.426 61.2572 217.649 61.5542 217.871 61.8135C217.982 61.9607 218.239 61.8521 218.242 61.8506L218.872 60.961C223.763 53.8096 228.654 46.6212 233.545 39.4698C233.767 39.0992 233.99 38.7282 234.36 38.4688L234.249 38.3946ZM39.0537 48.2168C36.9046 45.8824 33.2363 44.5855 30.0127 44.9561C27.4932 45.2526 25.3069 46.4755 23.6025 48.3653C22.0835 50.0697 21.1574 52.145 20.6758 54.3682C20.2683 56.2207 20.3422 58.0362 20.5645 59.9258C20.7868 62.075 21.6759 63.9654 23.0098 65.67C26.1593 69.7089 31.2733 71.7839 36.2754 72.2285L36.2012 72.1543C41.092 72.5989 45.9092 71.6723 50.3555 69.3008L47.0947 61.001L45.0938 62.335C43.0559 63.5578 40.9066 64.3356 38.5723 64.7432C37.9053 64.8914 37.2753 65.003 36.5713 65.0401C33.6812 65.2253 30.68 64.5952 28.3086 62.9278C25.2332 60.7786 23.7884 57.1472 25.2334 53.627C25.9003 51.9966 26.9378 50.5512 28.4199 49.5137C30.7913 47.8835 34.3857 48.4395 36.2383 50.4405C37.0161 51.2926 37.4237 52.3671 37.3867 53.4785C37.3497 54.1084 37.2009 54.6279 37.0156 55.2207C36.5708 56.6656 35.3109 57.8515 33.7549 57.7774C32.7547 57.7402 31.9768 57.11 31.5322 56.295C31.1617 55.628 30.4204 53.9604 29.4199 54.2569C28.5678 54.5534 28.1602 55.4057 28.1602 56.295C28.0862 59.0369 30.9397 61.0746 33.6445 61.2969C37.5719 61.5931 40.5728 58.3324 40.9434 54.6641C41.2026 52.4038 40.6469 49.9213 39.0537 48.2168ZM153.245 50.0342C152.393 50.0342 152.393 50.1827 152.393 50.8496V64.4854C152.393 64.8188 152.43 65.1158 152.43 65.4492C152.43 65.5973 152.578 65.708 152.727 65.708C152.873 65.7446 153.164 65.7451 153.171 65.7451H160.804C161.322 65.7451 161.804 65.6347 162.286 65.5606V65.5977C166.547 64.8195 169.845 60.7802 168.696 56.1485C167.992 53.1841 165.991 51.2936 162.953 50.3672C162.138 50.1079 161.286 50.0713 160.434 50.0713C158.025 50.0343 155.654 50.0342 153.245 50.0342ZM52.0967 48.7725C51.8374 48.5133 51.319 48.3282 51.0225 48.5869C50.8743 48.6981 50.6515 49.1427 50.6143 49.3282V51.4034C50.6142 51.8849 49.9477 52.1445 49.5771 52.1446C49.0214 52.1816 48.6135 52.0336 48.1689 51.7002L44.0557 48.7354C43.7964 48.5503 43.5004 48.4398 43.2412 48.5508L47.7529 60.3477C50.3015 58.3792 53.0603 54.8373 53.208 51.5889C53.2451 50.5143 52.9118 49.4765 52.0967 48.7725ZM53.2451 42.2139C52.43 36.9893 48.058 32.5431 42.6855 33.0987V33.0616C39.536 33.358 36.7935 35.433 35.2373 38.3604H38.6465C38.8687 38.3604 39.0912 38.3233 39.3135 38.3233L41.166 42.9551C42.2034 43.622 43.1295 44.2893 44.0928 45.0303C44.5003 45.3638 44.9824 45.7715 45.5752 45.7715C45.8345 45.7715 45.9823 45.2528 45.9824 45.0303C45.8342 44.1411 45.724 43.2887 45.9092 42.3994C46.1315 41.1396 47.0947 40.2499 48.3916 40.1387C50.207 39.9907 51.8372 41.1764 53.2451 42.2139ZM16.8105 0.0469052C21.3681 -0.36066 27.3339 1.89955 29.2236 6.6055C31.706 6.5316 33.7806 8.31051 33.9658 10.8301C34.1139 13.0533 32.3726 15.2026 30.1865 15.4991C29.7419 15.5361 29.1858 15.5732 28.7412 15.4991C26.8516 15.2025 25.4438 13.72 25.0732 11.9785C24.6657 10.1258 25.481 8.27287 27.1113 7.19827C26.889 6.56839 26.5921 6.05002 26.1475 5.53128C24.5913 3.71565 22.4797 2.56691 20.1084 2.19632C18.0334 1.86282 16.1434 1.97367 14.1426 2.64066C12.6234 3.12238 10.474 4.60503 10.0664 6.27249C10.3628 6.42071 10.6597 6.53133 10.9932 6.56839C14.8096 1.56608 21.6274 2.60381 25.7402 6.75394C24.11 8.27319 23.4434 10.4593 24.1104 12.6455C24.9626 15.4616 27.8891 17.1659 30.668 16.4991C30.9273 16.462 31.187 16.4622 31.4463 16.6104L30.9648 17.2774C30.7796 17.5737 30.7427 18.0551 30.9277 18.3516C31.113 18.685 31.5203 18.7971 31.9648 18.9082C31.6685 19.2416 31.3357 19.6121 31.1875 20.0196C30.854 20.9089 32.0395 21.0941 32.2988 21.2793C31.7061 21.798 31.1873 22.2796 31.4463 22.9834C31.5943 23.4276 32.4079 23.5764 32.3359 23.6875C32.1136 24.021 31.4833 24.2441 31.4092 24.8369C31.3723 25.3555 31.7056 25.7262 32.002 26.0967C31.6685 26.319 31.2614 26.5416 31.0762 26.8379C30.669 27.4304 31.2604 28.0226 31.3721 28.2823C31.4462 28.4675 30.7428 28.4313 30.5205 28.8389C30.3353 29.1353 30.4094 29.4683 30.5205 29.8018C29.8907 29.9129 29.4822 30.2835 29.2969 30.9873C28.7042 30.3946 28.2227 29.8016 27.7041 29.0977C23.369 32.2473 17.1443 33.8414 11.9199 34.2491C9.32621 34.4343 5.32366 34.2852 3.02637 32.9883V32.9512C-0.196603 31.135 1.76695 23.3541 1.98926 20.501C1.13709 18.4631 0.432915 16.1657 1.80371 14.0166C2.65592 12.6456 3.98999 11.5337 5.73145 11.1631C5.24988 8.82886 6.13892 7.42034 8.10254 6.38284C9.14011 2.15877 12.7348 0.417447 16.8105 0.0469052ZM23.4805 13.794C21.739 11.9783 18.9592 11.4597 16.5508 12.5713C14.4019 13.5718 12.9574 15.9063 13.1426 18.4258C13.3278 21.1307 15.2911 23.3172 17.8477 23.8731C20.5154 24.4659 23.2207 23.2063 24.5176 20.7608C25.7403 18.4263 25.296 15.6838 23.4805 13.794ZM18.1699 17.8701C18.4293 15.6099 20.912 15.1649 21.5791 15.6094C21.6903 15.6835 21.6532 15.9064 21.5791 16.0176C21.2458 16.7587 21.4683 17.7591 22.3945 17.9444C22.7279 18.0183 23.0983 17.7586 23.4316 17.6475C23.691 18.4998 23.3947 19.3525 22.8389 19.9453C22.2461 20.5751 21.5052 20.8338 20.5791 20.7598H20.542C19.0599 20.6486 18.0218 19.2782 18.1699 17.8701Z" fill="url(#paint0_linear_1399_33)"/>
<defs>
<linearGradient id="paint0_linear_1399_33" x1="0" y1="51.6917" x2="399.998" y2="51.6917" gradientUnits="userSpaceOnUse">
<stop stop-color="#E71CFD"/>
<stop offset="1" stop-color="#9C4FFC"/>
</linearGradient>
</defs>
</svg>