<svg width="24" height="24" viewBox="0 0 24 24" fill="none" xmlns="http://www.w3.org/2000/svg">
<path d="M11.1 7.1C15.0972 7.07327 18.9689 8.4941 22 11.1M12 12C10.9697 13.3849 9.66578 14.5433 8.16921 15.4034C6.67263 16.2635 5.0153 16.807 3.3 17M12 12C13.7122 12.2044 15.3654 12.7527 16.8604 13.6119C18.3554 14.4711 19.6614 15.6235 20.7 17M12 12C10.6992 8.79358 10.6992 5.20642 12 2M16.8 13.6C14.8148 17.1137 11.6141 19.781 7.8 21.1M12 2C6.47715 2 2 6.47715 2 12C2 17.5228 6.47715 22 12 22C17.5228 22 22 17.5228 22 12C22 6.47715 17.5228 2 12 2ZM6.3 3.8C5.51784 7.7369 6.19308 11.8239 8.2 15.3" stroke="#416C45" stroke-width="2" stroke-linecap="round" stroke-linejoin="round"/>
</svg>
