<svg width="10" height="10" viewBox="0 0 10 10" fill="none" xmlns="http://www.w3.org/2000/svg">
<g clip-path="url(#clip0_789_8302)">
<path d="M4.9994 2.49663V4.99663L6.66607 5.82997M8.33273 4.99663V7.07997M8.33273 8.74663H8.3369M8.85357 3.4133C8.53927 2.6472 8.00383 1.99213 7.31559 1.53168C6.62736 1.07124 5.81753 0.826301 4.98947 0.828135C4.16141 0.829969 3.35268 1.07849 2.66649 1.54198C1.98029 2.00547 1.44777 2.66291 1.13687 3.43039C0.825965 4.19787 0.750794 5.04058 0.920947 5.85097C1.0911 6.66136 1.49886 7.40268 2.09218 7.9803C2.68551 8.55793 3.43748 8.94567 4.25214 9.09403C5.0668 9.2424 5.9072 9.14466 6.66607 8.8133" stroke="white" stroke-linecap="round" stroke-linejoin="round"/>
</g>
<defs>
<clipPath id="clip0_789_8302">
<rect width="10" height="10" fill="white"/>
</clipPath>
</defs>
</svg>
